<svg width="914" height="400" fill="none" xmlns="http://www.w3.org/2000/svg"><style>#CL0 {fill: #00ACD7;}#CL1 {fill: #333;}@media (prefers-color-scheme: dark) {#CL0 {fill: #00ACD7;}#CL1 {fill: #EEE;}}</style><path d="M408.912 200.754c0 .711-.05 1.385-.15 2.023a9.735 9.735 0 0 1-.438 1.75 6.387 6.387 0 0 1-.834 1.614 4.71 4.71 0 0 1-1.203 1.203 4.66 4.66 0 0 1-1.422.683 5.695 5.695 0 0 1-1.722.246 5.326 5.326 0 0 1-1.573-.218 4.036 4.036 0 0 1-1.257-.616 4.395 4.395 0 0 1-.561-.451 5.915 5.915 0 0 1-.492-.56l-.178 1.572h-3.418v-21h3.801v7.547c.182-.21.378-.401.588-.574.209-.183.433-.338.67-.465a4.05 4.05 0 0 1 1.093-.424c.402-.1.834-.15 1.299-.15.638 0 1.222.082 1.75.246a4.693 4.693 0 0 1 1.436.711c.337.237.642.524.916.861.273.328.515.688.724 1.08.329.629.57 1.335.725 2.119.164.784.246 1.623.246 2.516v.287Zm-3.801-.287c0-.392-.018-.77-.054-1.135a6.915 6.915 0 0 0-.178-1.025 4.234 4.234 0 0 0-.397-.998 2.468 2.468 0 0 0-.71-.821 2.15 2.15 0 0 0-.711-.342 3.048 3.048 0 0 0-.903-.123c-.455 0-.857.064-1.203.192a2.426 2.426 0 0 0-.889.56 2.584 2.584 0 0 0-.328.411c-.1.145-.191.305-.273.478v5.893c.109.228.232.437.369.629.146.182.314.341.506.478.228.173.492.305.793.397.31.091.661.136 1.053.136.337 0 .642-.041.916-.123.273-.082.51-.196.711-.342.282-.2.51-.46.683-.779a4.1 4.1 0 0 0 .41-1.107 6.27 6.27 0 0 0 .151-.985c.036-.355.054-.724.054-1.107v-.287Zm15.41 7.533a3.377 3.377 0 0 1-.233-.629 8.46 8.46 0 0 1-.164-.752 4.917 4.917 0 0 1-1.627 1.162 5.073 5.073 0 0 1-1.107.356 5.865 5.865 0 0 1-1.299.136 6.405 6.405 0 0 1-2.092-.328 4.955 4.955 0 0 1-1.627-.916 4.193 4.193 0 0 1-1.066-1.394 4.157 4.157 0 0 1-.383-1.778c0-.82.16-1.545.479-2.173a3.953 3.953 0 0 1 1.435-1.573c.574-.373 1.281-.656 2.119-.847.848-.201 1.819-.301 2.912-.301h2.119v-.875c0-.346-.054-.656-.164-.93a1.889 1.889 0 0 0-.492-.724 2.246 2.246 0 0 0-.861-.479 3.605 3.605 0 0 0-1.19-.178c-.401 0-.747.05-1.039.151a1.797 1.797 0 0 0-.711.396 1.469 1.469 0 0 0-.369.561c-.073.219-.109.46-.109.724h-3.801c0-.629.137-1.226.41-1.791a4.448 4.448 0 0 1 1.231-1.49c.528-.428 1.176-.766 1.941-1.012.775-.255 1.659-.382 2.653-.382.893 0 1.722.109 2.488.328.775.218 1.444.542 2.01.97a4.458 4.458 0 0 1 1.326 1.627c.319.648.478 1.399.478 2.256v6.344c0 .793.05 1.449.151 1.969.1.519.246.966.437 1.34V208h-3.855Zm-3.623-2.666c.382 0 .738-.046 1.066-.137.328-.091.624-.209.889-.355.264-.146.492-.31.683-.492a2.73 2.73 0 0 0 .451-.575v-2.543h-1.941c-.592 0-1.098.06-1.517.178-.42.11-.762.264-1.026.465-.264.21-.46.46-.588.752a2.242 2.242 0 0 0-.191.93c0 .264.045.51.137.738.1.219.241.406.423.56.183.146.406.265.67.356.274.082.588.123.944.123Zm9.68-4.84c0-1.121.128-2.146.383-3.076.265-.93.647-1.727 1.149-2.393a5.272 5.272 0 0 1 1.818-1.545c.72-.364 1.54-.546 2.461-.546.775 0 1.454.141 2.037.423a4.78 4.78 0 0 1 1.572 1.176V187h3.815v21h-3.432l-.191-1.545a5.022 5.022 0 0 1-1.641 1.34c-.629.319-1.358.478-2.187.478-.903 0-1.714-.186-2.434-.56a5.433 5.433 0 0 1-1.805-1.572c-.501-.666-.884-1.454-1.148-2.366a10.817 10.817 0 0 1-.397-2.994v-.287Zm3.801.287c0 .62.05 1.199.151 1.737.109.528.282.989.519 1.38.237.401.542.716.916.944.374.228.83.342 1.367.342.657 0 1.199-.142 1.627-.424.438-.283.784-.67 1.039-1.162v-5.989a2.91 2.91 0 0 0-1.025-1.162c-.428-.282-.966-.424-1.613-.424-.538 0-.998.119-1.381.356a2.673 2.673 0 0 0-.916.943c-.237.41-.41.889-.52 1.436a8.734 8.734 0 0 0-.164 1.736v.287Zm11.91-.287c0-1.121.136-2.146.41-3.076.282-.93.683-1.727 1.203-2.393a5.406 5.406 0 0 1 1.887-1.545c.738-.364 1.572-.546 2.501-.546.502 0 .957.05 1.368.15.419.091.797.232 1.134.424.256.137.493.301.711.492.219.182.42.387.602.615l.15-1.408h3.459v14.314c0 1.003-.173 1.896-.519 2.68a5.49 5.49 0 0 1-1.422 1.983c-.62.537-1.363.943-2.229 1.216-.856.283-1.804.424-2.843.424a8.51 8.51 0 0 1-2.954-.56 7.027 7.027 0 0 1-1.421-.739 4.676 4.676 0 0 1-1.149-1.052l1.709-2.311c.246.283.511.529.793.738.283.219.579.397.889.534.301.136.61.237.929.3.329.073.666.11 1.012.11.556 0 1.048-.078 1.477-.233a2.8 2.8 0 0 0 1.094-.683c.264-.274.464-.611.601-1.012.146-.401.219-.852.219-1.354v-.847c-.182.2-.374.383-.574.547a4.41 4.41 0 0 1-.643.437 4.645 4.645 0 0 1-1.121.424c-.401.1-.834.15-1.299.15-.92 0-1.75-.186-2.488-.56a5.744 5.744 0 0 1-1.873-1.572c-.52-.666-.921-1.454-1.203-2.366-.274-.92-.41-1.918-.41-2.994v-.287Zm3.814.287c0 .62.059 1.199.178 1.737.127.528.319.989.574 1.38.255.401.579.716.971.944.392.228.856.342 1.394.342.328 0 .625-.032.889-.096.273-.064.519-.155.738-.274a2.53 2.53 0 0 0 .602-.464 3.1 3.1 0 0 0 .451-.616v-6.261a2.823 2.823 0 0 0-.492-.67 2.375 2.375 0 0 0-.657-.465 3.152 3.152 0 0 0-.697-.233 3.763 3.763 0 0 0-.807-.082c-.537 0-1.002.119-1.394.356a2.822 2.822 0 0 0-.971.943c-.264.41-.46.889-.588 1.436a7.539 7.539 0 0 0-.191 1.736v.287Zm19.442 7.492c-1.139 0-2.173-.186-3.103-.56a7.294 7.294 0 0 1-2.393-1.531 6.692 6.692 0 0 1-1.545-2.256 7.383 7.383 0 0 1-.533-2.803v-.547c0-1.13.178-2.16.533-3.09a7.192 7.192 0 0 1 1.491-2.42 6.728 6.728 0 0 1 2.269-1.572c.875-.374 1.828-.56 2.858-.56 1.066 0 2.014.177 2.843.533.839.346 1.55.838 2.133 1.476.574.638 1.012 1.409 1.313 2.311.3.893.451 1.882.451 2.967v1.613h-10.035v.041c.127.592.291 1.071.492 1.436.2.355.469.679.807.97.346.301.742.533 1.189.698.447.164.934.246 1.463.246.747 0 1.472-.142 2.174-.424a4.013 4.013 0 0 0 1.709-1.272l1.9 2.051c-.483.684-1.249 1.303-2.297 1.859s-2.288.834-3.719.834Zm-.451-12.263c-.428 0-.82.077-1.176.232-.355.146-.665.36-.929.643-.274.282-.502.62-.684 1.011-.182.392-.319.83-.41 1.313h6.234v-.301a2.96 2.96 0 0 0-.82-2.064 2.712 2.712 0 0 0-.943-.602c-.365-.155-.789-.232-1.272-.232Z" id="CL1"/><path d="M478.33 206.031c0-.629.2-1.166.601-1.613.41-.447.998-.67 1.764-.67.747 0 1.331.223 1.75.67.419.437.629.975.629 1.613s-.214 1.171-.643 1.6c-.419.428-.998.642-1.736.642-.747 0-1.331-.214-1.75-.642-.41-.438-.615-.971-.615-1.6Zm11.198-5.537c0-1.121.137-2.142.41-3.062.274-.93.67-1.728 1.19-2.393a5.45 5.45 0 0 1 1.873-1.545c.738-.374 1.567-.56 2.488-.56.547 0 1.044.059 1.49.177.447.11.852.274 1.217.493.237.136.46.3.67.492.21.182.406.383.588.601l.137-1.49h2.966v14.383c0 .993-.164 1.873-.492 2.639a5.469 5.469 0 0 1-1.353 1.968c-.593.529-1.304.93-2.133 1.203-.82.283-1.727.424-2.721.424-.419 0-.879-.045-1.381-.136a8.583 8.583 0 0 1-1.504-.424 7 7 0 0 1-1.435-.752 4.915 4.915 0 0 1-1.176-1.121l1.545-1.983a5.111 5.111 0 0 0 1.791 1.395c.319.146.643.25.971.314.328.073.661.11.998.11.583 0 1.098-.082 1.545-.247a3.21 3.21 0 0 0 1.162-.71c.291-.301.515-.67.67-1.108.164-.437.246-.934.246-1.49v-1.026a6.897 6.897 0 0 1-.602.561 3.6 3.6 0 0 1-.656.451 4.398 4.398 0 0 1-1.176.451c-.428.11-.893.164-1.394.164-.912 0-1.732-.186-2.461-.56a5.679 5.679 0 0 1-1.873-1.586c-.511-.665-.907-1.454-1.19-2.365a10.442 10.442 0 0 1-.41-2.981v-.287Zm3.281.287c0 .657.064 1.276.192 1.86.136.583.351 1.089.642 1.517.283.447.643.798 1.08 1.053.438.246.957.369 1.559.369a3.85 3.85 0 0 0 1.012-.123c.31-.082.588-.196.834-.342.246-.155.465-.342.656-.56a4.17 4.17 0 0 0 .506-.725v-6.48a3.339 3.339 0 0 0-.533-.739 3.01 3.01 0 0 0-.698-.56 3.391 3.391 0 0 0-.793-.301 3.52 3.52 0 0 0-.957-.123c-.61 0-1.134.128-1.572.383a3.147 3.147 0 0 0-1.08 1.052 4.806 4.806 0 0 0-.643 1.559 8.233 8.233 0 0 0-.205 1.873v.287Zm12.238-.314c0-1.076.155-2.069.465-2.981.31-.92.761-1.718 1.353-2.392a6.127 6.127 0 0 1 2.147-1.586c.847-.383 1.813-.574 2.898-.574 1.085 0 2.051.191 2.899.574a6.235 6.235 0 0 1 2.173 1.586c.584.674 1.03 1.472 1.34 2.392.31.912.465 1.905.465 2.981v.287c0 1.085-.155 2.083-.465 2.994a7.063 7.063 0 0 1-1.34 2.379 6.107 6.107 0 0 1-2.16 1.586c-.847.383-1.809.574-2.885.574-1.084 0-2.055-.191-2.912-.574a6.116 6.116 0 0 1-2.16-1.586 6.957 6.957 0 0 1-1.353-2.379c-.31-.911-.465-1.909-.465-2.994v-.287Zm3.267.287c0 .665.069 1.294.205 1.887.146.592.37 1.112.67 1.558.292.447.666.802 1.121 1.067.456.255.999.382 1.627.382.611 0 1.144-.127 1.6-.382.456-.265.829-.62 1.121-1.067.292-.446.506-.966.643-1.558a7.871 7.871 0 0 0 .218-1.887v-.287c0-.647-.072-1.267-.218-1.86a5.22 5.22 0 0 0-.643-1.558 3.432 3.432 0 0 0-1.135-1.067c-.446-.264-.984-.396-1.613-.396-.62 0-1.157.132-1.613.396a3.35 3.35 0 0 0-1.108 1.067c-.3.446-.524.966-.67 1.558a8.297 8.297 0 0 0-.205 1.86v.287Z" id="CL0"/></svg>