<svg width="914" height="400" fill="none" xmlns="http://www.w3.org/2000/svg"><path d="M403.9 208.28c-1.419 0-2.548-.495-3.388-1.484-.822-1.008-1.232-2.38-1.232-4.116l1.372 2.1h-.98V208h-4.06v-20.44h4.2v4.2l-.14 4.06h.98l-1.372 2.1c0-1.755.41-3.127 1.232-4.116.84-.989 1.969-1.484 3.388-1.484 1.493 0 2.697.551 3.612 1.652.914 1.083 1.372 2.539 1.372 4.368v3.92c0 1.829-.458 3.295-1.372 4.396-.915 1.083-2.119 1.624-3.612 1.624Zm-1.624-3.64c.765 0 1.353-.215 1.764-.644.429-.448.644-1.073.644-1.876v-3.64c0-.821-.215-1.447-.644-1.876-.411-.429-.999-.644-1.764-.644-.803 0-1.419.233-1.848.7-.411.448-.616 1.101-.616 1.96v3.36c0 .859.205 1.521.616 1.988.429.448 1.045.672 1.848.672Zm13.569 3.64c-1.531 0-2.744-.439-3.64-1.316-.896-.896-1.344-2.063-1.344-3.5 0-1.045.242-1.941.728-2.688.504-.747 1.222-1.316 2.156-1.708.952-.411 2.09-.616 3.416-.616h3.024v-.98c0-.579-.206-1.027-.616-1.344-.392-.336-.962-.504-1.708-.504-.71 0-1.279.14-1.708.42-.411.28-.635.691-.672 1.232h-3.976c.056-1.512.653-2.716 1.792-3.612 1.138-.896 2.678-1.344 4.62-1.344 2.034 0 3.621.467 4.76 1.4 1.138.933 1.708 2.24 1.708 3.92V208h-4.06v-3.052h-.672l.756-.448c0 .765-.187 1.437-.56 2.016-.374.56-.906.999-1.596 1.316-.672.299-1.475.448-2.408.448Zm1.484-3.36c.877 0 1.568-.215 2.072-.644.522-.448.784-1.027.784-1.736v-1.568h-2.94c-.747 0-1.326.187-1.736.56-.392.355-.588.821-.588 1.4s.205 1.055.616 1.428c.429.373 1.026.56 1.792.56Zm14.437 3.36c-1.475 0-2.679-.541-3.612-1.624-.915-1.101-1.372-2.567-1.372-4.396v-3.92c0-1.829.457-3.285 1.372-4.368.933-1.101 2.137-1.652 3.612-1.652 1.437 0 2.567.495 3.388 1.484.821.989 1.232 2.361 1.232 4.116l-1.372-2.1h.98l-.14-4.06v-4.2h4.2V208h-4.06v-3.22h-.98l1.372-2.1c0 1.736-.411 3.108-1.232 4.116-.821.989-1.951 1.484-3.388 1.484Zm1.624-3.64c.803 0 1.409-.224 1.82-.672.429-.467.644-1.129.644-1.988v-3.36c0-.859-.215-1.512-.644-1.96-.411-.467-1.017-.7-1.82-.7-.765 0-1.363.215-1.792.644-.411.429-.616 1.055-.616 1.876v3.64c0 .803.205 1.428.616 1.876.429.429 1.027.644 1.792.644Zm11.441 8.4v-3.36h4.34c.784 0 1.381-.196 1.792-.588.429-.392.644-.933.644-1.624v-.588l.056-3.5h-.98l1.54-1.82c0 1.736-.42 3.108-1.26 4.116-.821.989-1.951 1.484-3.388 1.484-1.549 0-2.791-.541-3.724-1.624-.933-1.083-1.4-2.548-1.4-4.396v-2.8c0-1.829.467-3.285 1.4-4.368.933-1.101 2.175-1.652 3.724-1.652 1.437 0 2.567.504 3.388 1.512.84.989 1.26 2.352 1.26 4.088l-1.54-2.66h.98v-2.66h4.06v15.008c0 1.68-.579 3.005-1.736 3.976-1.139.971-2.697 1.456-4.676 1.456h-4.48Zm4.256-9.52c.765 0 1.363-.215 1.792-.644.429-.448.644-1.073.644-1.876v-2.52c0-.803-.215-1.419-.644-1.848-.429-.448-1.027-.672-1.792-.672-.784 0-1.391.224-1.82.672-.411.429-.616 1.045-.616 1.848V201c0 .803.205 1.428.616 1.876.429.429 1.036.644 1.82.644Zm15.781 4.76c-1.363 0-2.557-.252-3.584-.756-1.008-.523-1.792-1.241-2.352-2.156-.541-.933-.812-2.016-.812-3.248v-3.64c0-1.232.271-2.305.812-3.22a5.598 5.598 0 0 1 2.352-2.156c1.027-.523 2.221-.784 3.584-.784s2.539.261 3.528.784c1.008.504 1.783 1.223 2.324 2.156.56.915.84 1.988.84 3.22v2.856h-9.436v.784c0 .971.224 1.68.672 2.128.467.448 1.157.672 2.072.672.597 0 1.12-.093 1.568-.28.448-.187.709-.467.784-.84h4.116c-.299 1.344-1.036 2.427-2.212 3.248-1.176.821-2.595 1.232-4.256 1.232Zm2.688-9.156v-.7c0-.952-.224-1.689-.672-2.212-.429-.523-1.101-.784-2.016-.784s-1.605.271-2.072.812c-.448.541-.672 1.288-.672 2.24v.364l5.712-.056-.28.336Z" fill="#333"/><path d="M480.509 208.28c-.709 0-1.288-.215-1.736-.644-.429-.429-.644-.98-.644-1.652 0-.709.215-1.288.644-1.736.448-.448 1.027-.672 1.736-.672.709 0 1.279.224 1.708.672.448.448.672 1.027.672 1.736 0 .672-.224 1.223-.672 1.652-.429.429-.999.644-1.708.644Zm11.721 4.76v-2.464h4.34c.84 0 1.512-.243 2.016-.728.504-.467.756-1.111.756-1.932v-1.288l.056-2.66h-.028c-.187.952-.644 1.689-1.372 2.212-.709.523-1.624.784-2.744.784-1.587 0-2.837-.504-3.752-1.512-.915-1.027-1.372-2.427-1.372-4.2v-3.164c0-1.773.457-3.173 1.372-4.2.915-1.045 2.165-1.568 3.752-1.568 1.083 0 1.979.261 2.688.784.728.523 1.195 1.241 1.4 2.156h.028v-2.66h2.716v15.344c0 1.568-.495 2.809-1.484 3.724s-2.333 1.372-4.032 1.372h-4.34Zm3.892-8.4c.989 0 1.773-.308 2.352-.924.579-.616.868-1.484.868-2.604v-2.884c0-1.101-.289-1.96-.868-2.576-.579-.616-1.363-.924-2.352-.924-1.027 0-1.82.299-2.38.896-.56.579-.84 1.372-.84 2.38v3.36c0 1.008.28 1.811.84 2.408.56.579 1.353.868 2.38.868Zm15.725 3.584c-1.885 0-3.388-.541-4.508-1.624-1.101-1.083-1.652-2.595-1.652-4.536v-3.528c0-1.941.551-3.453 1.652-4.536 1.12-1.083 2.623-1.624 4.508-1.624 1.886 0 3.379.541 4.48 1.624 1.12 1.083 1.68 2.595 1.68 4.536v3.528c0 1.941-.56 3.453-1.68 4.536-1.101 1.083-2.594 1.624-4.48 1.624Zm0-2.436c1.046 0 1.867-.289 2.464-.868.616-.597.924-1.465.924-2.604v-4.032c0-1.139-.308-1.997-.924-2.576-.597-.597-1.418-.896-2.464-.896-1.045 0-1.876.299-2.492.896-.597.579-.896 1.437-.896 2.576v4.032c0 1.139.299 2.007.896 2.604.616.579 1.447.868 2.492.868Z" fill="#00ACD7"/></svg>