<svg width="914" height="400" fill="none" xmlns="http://www.w3.org/2000/svg">
  <path fill="#fff" d="M0 0h914v400H0z"/>
  <path d="M405.024 207.373h-.054V209h-4.321v-20.727h4.321v8.832h.054c1.067-1.631 2.584-2.447 4.553-2.447 1.805 0 3.195.62 4.17 1.86.975 1.239 1.463 2.934 1.463 5.086 0 2.333-.57 4.206-1.709 5.619-1.139 1.412-2.661 2.119-4.566 2.119-1.723 0-3.026-.656-3.911-1.969zm-.123-5.906v1.435c0 .903.26 1.65.78 2.243.519.592 1.185.888 1.996.888.984 0 1.745-.378 2.283-1.135.547-.765.82-1.845.82-3.24 0-1.157-.25-2.06-.752-2.707-.492-.656-1.198-.984-2.119-.984-.866 0-1.586.323-2.16.971-.565.647-.848 1.49-.848 2.529zM428.828 209h-4.088v-2.01h-.055c-.939 1.568-2.329 2.352-4.17 2.352-1.358 0-2.429-.383-3.213-1.149-.774-.774-1.162-1.804-1.162-3.089 0-2.717 1.609-4.284 4.826-4.704l3.801-.505c0-1.532-.829-2.297-2.488-2.297-1.668 0-3.254.496-4.758 1.49v-3.254c.602-.31 1.422-.583 2.461-.82 1.048-.237 2.001-.356 2.857-.356 3.993 0 5.989 1.992 5.989 5.975V209zm-4.061-5.688v-.943l-2.543.328c-1.403.183-2.105.816-2.105 1.901 0 .492.168.897.506 1.216.346.31.811.465 1.394.465.811 0 1.472-.278 1.983-.834.51-.565.765-1.276.765-2.133zM445.385 209h-4.32v-1.928h-.055c-.984 1.513-2.429 2.27-4.334 2.27-1.75 0-3.158-.615-4.225-1.846-1.066-1.239-1.599-2.967-1.599-5.182 0-2.315.588-4.169 1.763-5.564 1.176-1.395 2.717-2.092 4.621-2.092 1.805 0 3.063.647 3.774 1.942h.055v-8.327h4.32V209zm-4.238-6.809v-1.052c0-.912-.265-1.668-.793-2.27-.529-.601-1.217-.902-2.065-.902-.957 0-1.704.378-2.242 1.135-.538.747-.807 1.777-.807 3.089 0 1.231.26 2.179.78 2.844.519.666 1.239.998 2.16.998.875 0 1.586-.351 2.133-1.053.556-.701.834-1.631.834-2.789zm21.041 5.209c0 2.598-.752 4.608-2.256 6.03-1.504 1.431-3.682 2.146-6.535 2.146-1.887 0-3.381-.269-4.484-.806v-3.637c1.44.838 2.894 1.258 4.361 1.258 1.458 0 2.589-.388 3.391-1.162.802-.766 1.203-1.81 1.203-3.131v-1.108h-.055c-.984 1.568-2.438 2.352-4.361 2.352-1.787 0-3.204-.629-4.252-1.887-1.048-1.258-1.572-2.944-1.572-5.059 0-2.369.583-4.251 1.75-5.646 1.166-1.395 2.702-2.092 4.607-2.092 1.705 0 2.981.656 3.828 1.969h.055V195h4.32v12.4zm-4.265-5.127v-1.107c0-.884-.265-1.636-.793-2.256-.52-.629-1.199-.943-2.038-.943-.957 0-1.708.373-2.255 1.121-.547.747-.821 1.8-.821 3.158 0 1.167.26 2.092.78 2.775.519.675 1.23 1.012 2.132 1.012.894 0 1.614-.342 2.161-1.025.556-.693.834-1.604.834-2.735zm19.893.957h-9.133c.146 2.033 1.426 3.049 3.842 3.049 1.54 0 2.894-.364 4.06-1.093v3.117c-1.294.692-2.976 1.039-5.045 1.039-2.26 0-4.015-.625-5.263-1.873-1.249-1.258-1.873-3.008-1.873-5.25 0-2.324.674-4.166 2.023-5.524 1.349-1.358 3.008-2.037 4.977-2.037 2.041 0 3.618.606 4.73 1.819 1.121 1.212 1.682 2.857 1.682 4.935v1.818zm-4.006-2.652c0-2.005-.811-3.008-2.434-3.008-.692 0-1.294.287-1.804.862-.502.574-.807 1.289-.916 2.146h5.154z" fill="#333"/>
  <path d="M481.07 209.273c-.364 0-.674-.127-.93-.382a1.267 1.267 0 01-.382-.93c0-.374.123-.688.369-.943.255-.256.569-.383.943-.383.182 0 .351.036.506.109.164.064.305.155.424.274a1.297 1.297 0 01.396.943c0 .182-.036.355-.109.519a1.467 1.467 0 01-.287.411c-.119.118-.26.209-.424.273a1.173 1.173 0 01-.506.109zm16.352-1.353c0 2.598-.592 4.521-1.777 5.769-1.176 1.258-2.994 1.887-5.455 1.887a9.602 9.602 0 01-4.348-1.025v-1.778c1.522.848 2.972 1.272 4.348 1.272 3.655 0 5.482-1.932 5.482-5.797v-1.682h-.054c-1.076 1.842-2.717 2.762-4.922 2.762-.866 0-1.659-.159-2.379-.478a5.133 5.133 0 01-1.832-1.381c-.511-.602-.907-1.331-1.19-2.188-.282-.866-.424-1.841-.424-2.926 0-1.148.151-2.192.452-3.13.3-.948.729-1.76 1.285-2.434a5.69 5.69 0 012.01-1.559c.793-.373 1.681-.56 2.666-.56 1.977 0 3.422.802 4.334 2.406h.054V195h1.75v12.92zm-1.75-7.424c0-.583-.105-1.135-.314-1.654a4.295 4.295 0 00-.875-1.367 4.12 4.12 0 00-1.34-.93 3.977 3.977 0 00-1.695-.356c-.73 0-1.39.142-1.983.424a4.375 4.375 0 00-1.504 1.203c-.41.52-.729 1.153-.957 1.901-.218.738-.328 1.572-.328 2.502 0 .857.105 1.631.315 2.324.209.693.505 1.281.888 1.764a4 4 0 001.381 1.121 4.128 4.128 0 001.818.396c.693 0 1.322-.123 1.887-.369a4.383 4.383 0 001.449-1.039c.401-.447.711-.966.93-1.559a5.626 5.626 0 00.328-1.941v-2.42zm11.43 8.832c-1.039 0-1.973-.173-2.802-.519a6.044 6.044 0 01-2.106-1.463 6.55 6.55 0 01-1.34-2.284c-.309-.884-.464-1.863-.464-2.939 0-1.167.164-2.21.492-3.131.328-.92.793-1.7 1.394-2.338a6.016 6.016 0 012.201-1.476c.857-.338 1.814-.506 2.872-.506 1.011 0 1.923.168 2.734.506a5.507 5.507 0 012.064 1.435c.566.629.998 1.395 1.299 2.297.301.902.451 1.928.451 3.076 0 1.094-.159 2.092-.478 2.994a6.671 6.671 0 01-1.34 2.311 5.964 5.964 0 01-2.133 1.504c-.838.355-1.786.533-2.844.533zm.137-13.139c-.765 0-1.458.133-2.078.397a4.39 4.39 0 00-1.6 1.162c-.437.501-.774 1.121-1.011 1.859-.237.73-.356 1.559-.356 2.489 0 .875.119 1.663.356 2.365a5.4 5.4 0 00.998 1.805c.437.501.966.888 1.586 1.162.62.264 1.312.396 2.078.396.784 0 1.476-.127 2.078-.383a4.196 4.196 0 001.531-1.134c.419-.502.734-1.112.944-1.832.218-.72.328-1.541.328-2.461 0-1.887-.42-3.327-1.258-4.321-.839-1.002-2.037-1.504-3.596-1.504z" fill="#555"/>
</svg>
